<svg xmlns="http://www.w3.org/2000/svg" xmlns:xlink="http://www.w3.org/1999/xlink" width="1080" zoomAndPan="magnify" viewBox="0 0 810 809.999993" height="1080" preserveAspectRatio="xMidYMid meet" version="1.0"><defs><clipPath id="c1e04ed53f"><path d="M 7 7.476562 L 810 7.476562 L 810 809.226562 L 7 809.226562 Z M 7 7.476562 " clip-rule="nonzero"/></clipPath></defs><g clip-path="url(#c1e04ed53f)"><path fill="#ffffff" d="M 659.558594 7.679688 L 157.414062 7.679688 C 74.628906 7.679688 7.285156 75.027344 7.285156 157.8125 L 7.285156 659.945312 C 7.285156 742.730469 74.628906 810.078125 157.414062 810.078125 L 659.566406 810.078125 C 742.351562 810.078125 809.695312 742.730469 809.695312 659.945312 L 809.695312 157.8125 C 809.6875 75.027344 742.34375 7.679688 659.558594 7.679688 Z M 157.414062 55.089844 L 659.566406 55.089844 C 716.203125 55.089844 762.285156 101.171875 762.285156 157.8125 L 762.285156 385.171875 L 624.484375 385.171875 C 620.398438 347.71875 606.746094 313.109375 586.035156 283.808594 C 586.152344 283.808594 586.261719 283.824219 586.375 283.824219 C 634.296875 283.824219 673.285156 244.832031 673.285156 196.90625 C 673.285156 148.984375 634.296875 109.992188 586.375 109.992188 C 538.453125 109.992188 499.457031 148.984375 499.457031 196.90625 C 499.457031 202.148438 500.003906 207.257812 500.894531 212.238281 C 472.835938 199 441.515625 191.558594 408.488281 191.550781 C 296.671875 191.566406 204.351562 276.46875 192.496094 385.171875 L 54.695312 385.171875 L 54.695312 157.8125 C 54.695312 101.164062 100.769531 55.089844 157.414062 55.089844 Z M 578.386719 408.875 C 578.386719 502.554688 502.167969 578.773438 408.480469 578.773438 C 314.804688 578.773438 238.585938 502.554688 238.585938 408.875 C 238.585938 315.203125 314.804688 238.976562 408.480469 238.960938 C 502.167969 238.976562 578.386719 315.203125 578.386719 408.875 Z M 546.867188 196.90625 C 546.867188 175.125 564.589844 157.398438 586.375 157.398438 C 608.152344 157.398438 625.875 175.125 625.875 196.90625 C 625.875 218.691406 608.152344 236.414062 586.375 236.414062 C 564.589844 236.414062 546.867188 218.691406 546.867188 196.90625 Z M 659.558594 762.660156 L 157.414062 762.660156 C 100.777344 762.660156 54.695312 716.578125 54.695312 659.9375 L 54.695312 432.578125 L 192.496094 432.578125 C 204.351562 541.289062 296.671875 626.183594 408.480469 626.183594 C 520.292969 626.183594 612.625 541.289062 624.476562 432.578125 L 762.277344 432.578125 L 762.277344 659.9375 C 762.277344 716.585938 716.203125 762.660156 659.558594 762.660156 Z M 659.558594 762.660156 " fill-opacity="1" fill-rule="nonzero"/></g><path fill="#ffffff" d="M 305.132812 661.210938 C 280.164062 650.980469 256.878906 637.078125 235.902344 619.902344 C 209.644531 598.402344 187.875 572.570312 171.1875 543.136719 C 164.738281 531.753906 150.273438 527.753906 138.878906 534.210938 C 127.492188 540.664062 123.492188 555.132812 129.949219 566.519531 C 149.535156 601.066406 175.074219 631.367188 205.875 656.582031 C 230.488281 676.738281 257.835938 693.054688 287.15625 705.074219 C 290.105469 706.273438 293.148438 706.851562 296.140625 706.851562 C 305.472656 706.851562 314.324219 701.304688 318.085938 692.128906 C 323.046875 680.023438 317.246094 666.179688 305.132812 661.210938 Z M 305.132812 661.210938 " fill-opacity="1" fill-rule="nonzero"/></svg>