<svg xmlns="http://www.w3.org/2000/svg" xmlns:xlink="http://www.w3.org/1999/xlink" width="1080" zoomAndPan="magnify" viewBox="0 0 810 809.999993" height="1080" preserveAspectRatio="xMidYMid meet" version="1.0"><defs><g/></defs><g fill="#ff00ff" fill-opacity="1"><g transform="translate(3.531423, 438.69267)"><g><path d="M 163.871094 -156.070312 L 126.414062 -156.070312 C 122.125 -156.070312 118.222656 -154.507812 115.101562 -151.386719 L 57.355469 -93.640625 L 39.015625 -93.640625 L 39.015625 -156.070312 L 7.804688 -156.070312 L 7.804688 0 L 39.015625 0 L 39.015625 -62.425781 L 57.355469 -62.425781 L 115.101562 -4.683594 C 118.222656 -1.5625 122.125 0 126.414062 0 L 163.871094 0 L 163.871094 -31.214844 L 132.660156 -31.214844 L 85.835938 -78.035156 L 132.660156 -124.855469 L 163.871094 -124.855469 Z M 163.871094 -156.070312 "/></g></g></g><g fill="#ff00ff" fill-opacity="1"><g transform="translate(206.030435, 438.69267)"><g><path d="M 132.660156 0 C 150.019531 0 163.871094 -14.242188 163.871094 -31.214844 L 163.871094 -124.855469 C 163.871094 -142.023438 149.824219 -156.070312 132.660156 -156.070312 L 39.015625 -156.070312 C 21.851562 -156.070312 7.804688 -142.023438 7.804688 -124.855469 L 7.804688 -31.214844 C 7.804688 -14.046875 21.851562 0 39.015625 0 Z M 39.015625 -124.855469 L 132.660156 -124.855469 L 132.660156 -31.214844 L 39.015625 -31.214844 Z M 39.015625 -124.855469 "/></g></g></g><g fill="#ff00ff" fill-opacity="1"><g transform="translate(408.529447, 438.69267)"><g><path d="M 163.871094 -156.070312 L 126.414062 -156.070312 C 122.125 -156.070312 118.222656 -154.507812 115.101562 -151.386719 L 57.355469 -93.640625 L 39.015625 -93.640625 L 39.015625 -156.070312 L 7.804688 -156.070312 L 7.804688 0 L 39.015625 0 L 39.015625 -62.425781 L 57.355469 -62.425781 L 115.101562 -4.683594 C 118.222656 -1.5625 122.125 0 126.414062 0 L 163.871094 0 L 163.871094 -31.214844 L 132.660156 -31.214844 L 85.835938 -78.035156 L 132.660156 -124.855469 L 163.871094 -124.855469 Z M 163.871094 -156.070312 "/></g></g></g><g fill="#ff00ff" fill-opacity="1"><g transform="translate(611.028489, 438.69267)"><g><path d="M 132.660156 0 C 150.019531 0 163.871094 -14.242188 163.871094 -31.214844 L 163.871094 -124.855469 C 163.871094 -142.023438 149.824219 -156.070312 132.660156 -156.070312 L 39.015625 -156.070312 C 21.851562 -156.070312 7.804688 -142.023438 7.804688 -124.855469 L 7.804688 -31.214844 C 7.804688 -14.046875 21.851562 0 39.015625 0 Z M 39.015625 -124.855469 L 132.660156 -124.855469 L 132.660156 -31.214844 L 39.015625 -31.214844 Z M 39.015625 -124.855469 "/></g></g></g><g fill="#00ffff" fill-opacity="1"><g transform="translate(27.292147, 444.178275)"><g><path d="M 163.871094 -156.070312 L 126.414062 -156.070312 C 122.125 -156.070312 118.222656 -154.507812 115.101562 -151.386719 L 57.355469 -93.640625 L 39.015625 -93.640625 L 39.015625 -156.070312 L 7.804688 -156.070312 L 7.804688 0 L 39.015625 0 L 39.015625 -62.425781 L 57.355469 -62.425781 L 115.101562 -4.683594 C 118.222656 -1.5625 122.125 0 126.414062 0 L 163.871094 0 L 163.871094 -31.214844 L 132.660156 -31.214844 L 85.835938 -78.035156 L 132.660156 -124.855469 L 163.871094 -124.855469 Z M 163.871094 -156.070312 "/></g></g></g><g fill="#00ffff" fill-opacity="1"><g transform="translate(229.791159, 444.178275)"><g><path d="M 132.660156 0 C 150.019531 0 163.871094 -14.242188 163.871094 -31.214844 L 163.871094 -124.855469 C 163.871094 -142.023438 149.824219 -156.070312 132.660156 -156.070312 L 39.015625 -156.070312 C 21.851562 -156.070312 7.804688 -142.023438 7.804688 -124.855469 L 7.804688 -31.214844 C 7.804688 -14.046875 21.851562 0 39.015625 0 Z M 39.015625 -124.855469 L 132.660156 -124.855469 L 132.660156 -31.214844 L 39.015625 -31.214844 Z M 39.015625 -124.855469 "/></g></g></g><g fill="#00ffff" fill-opacity="1"><g transform="translate(432.290171, 444.178275)"><g><path d="M 163.871094 -156.070312 L 126.414062 -156.070312 C 122.125 -156.070312 118.222656 -154.507812 115.101562 -151.386719 L 57.355469 -93.640625 L 39.015625 -93.640625 L 39.015625 -156.070312 L 7.804688 -156.070312 L 7.804688 0 L 39.015625 0 L 39.015625 -62.425781 L 57.355469 -62.425781 L 115.101562 -4.683594 C 118.222656 -1.5625 122.125 0 126.414062 0 L 163.871094 0 L 163.871094 -31.214844 L 132.660156 -31.214844 L 85.835938 -78.035156 L 132.660156 -124.855469 L 163.871094 -124.855469 Z M 163.871094 -156.070312 "/></g></g></g><g fill="#00ffff" fill-opacity="1"><g transform="translate(634.789213, 444.178275)"><g><path d="M 132.660156 0 C 150.019531 0 163.871094 -14.242188 163.871094 -31.214844 L 163.871094 -124.855469 C 163.871094 -142.023438 149.824219 -156.070312 132.660156 -156.070312 L 39.015625 -156.070312 C 21.851562 -156.070312 7.804688 -142.023438 7.804688 -124.855469 L 7.804688 -31.214844 C 7.804688 -14.046875 21.851562 0 39.015625 0 Z M 39.015625 -124.855469 L 132.660156 -124.855469 L 132.660156 -31.214844 L 39.015625 -31.214844 Z M 39.015625 -124.855469 "/></g></g></g><g fill="#ffffff" fill-opacity="1"><g transform="translate(15.411785, 441.435473)"><g><path d="M 163.871094 -156.070312 L 126.414062 -156.070312 C 122.125 -156.070312 118.222656 -154.507812 115.101562 -151.386719 L 57.355469 -93.640625 L 39.015625 -93.640625 L 39.015625 -156.070312 L 7.804688 -156.070312 L 7.804688 0 L 39.015625 0 L 39.015625 -62.425781 L 57.355469 -62.425781 L 115.101562 -4.683594 C 118.222656 -1.5625 122.125 0 126.414062 0 L 163.871094 0 L 163.871094 -31.214844 L 132.660156 -31.214844 L 85.835938 -78.035156 L 132.660156 -124.855469 L 163.871094 -124.855469 Z M 163.871094 -156.070312 "/></g></g></g><g fill="#ffffff" fill-opacity="1"><g transform="translate(217.910797, 441.435473)"><g><path d="M 132.660156 0 C 150.019531 0 163.871094 -14.242188 163.871094 -31.214844 L 163.871094 -124.855469 C 163.871094 -142.023438 149.824219 -156.070312 132.660156 -156.070312 L 39.015625 -156.070312 C 21.851562 -156.070312 7.804688 -142.023438 7.804688 -124.855469 L 7.804688 -31.214844 C 7.804688 -14.046875 21.851562 0 39.015625 0 Z M 39.015625 -124.855469 L 132.660156 -124.855469 L 132.660156 -31.214844 L 39.015625 -31.214844 Z M 39.015625 -124.855469 "/></g></g></g><g fill="#ffffff" fill-opacity="1"><g transform="translate(420.409809, 441.435473)"><g><path d="M 163.871094 -156.070312 L 126.414062 -156.070312 C 122.125 -156.070312 118.222656 -154.507812 115.101562 -151.386719 L 57.355469 -93.640625 L 39.015625 -93.640625 L 39.015625 -156.070312 L 7.804688 -156.070312 L 7.804688 0 L 39.015625 0 L 39.015625 -62.425781 L 57.355469 -62.425781 L 115.101562 -4.683594 C 118.222656 -1.5625 122.125 0 126.414062 0 L 163.871094 0 L 163.871094 -31.214844 L 132.660156 -31.214844 L 85.835938 -78.035156 L 132.660156 -124.855469 L 163.871094 -124.855469 Z M 163.871094 -156.070312 "/></g></g></g><g fill="#ffffff" fill-opacity="1"><g transform="translate(622.908851, 441.435473)"><g><path d="M 132.660156 0 C 150.019531 0 163.871094 -14.242188 163.871094 -31.214844 L 163.871094 -124.855469 C 163.871094 -142.023438 149.824219 -156.070312 132.660156 -156.070312 L 39.015625 -156.070312 C 21.851562 -156.070312 7.804688 -142.023438 7.804688 -124.855469 L 7.804688 -31.214844 C 7.804688 -14.046875 21.851562 0 39.015625 0 Z M 39.015625 -124.855469 L 132.660156 -124.855469 L 132.660156 -31.214844 L 39.015625 -31.214844 Z M 39.015625 -124.855469 "/></g></g></g></svg>