<svg xmlns="http://www.w3.org/2000/svg" xmlns:xlink="http://www.w3.org/1999/xlink" width="1080" zoomAndPan="magnify" viewBox="0 0 810 809.999993" height="1080" preserveAspectRatio="xMidYMid meet" version="1.0"><defs><clipPath id="ea3175554b"><path d="M 9.820312 0 L 800 0 L 800 789 L 9.820312 789 Z M 9.820312 0 " clip-rule="nonzero"/></clipPath></defs><g clip-path="url(#ea3175554b)"><path fill="#ffffff" d="M 386.046875 0.0507812 L 428.058594 0.0742188 C 582.207031 8.410156 721.191406 114.519531 774.703125 258.777344 L 783.191406 283.105469 C 787.488281 297.640625 791.203125 312.742188 793.582031 327.710938 L 796.386719 347.484375 C 799.835938 371.03125 799.984375 404.425781 797.652344 428.457031 L 794.851562 449.769531 C 773.046875 606.605469 653.554688 737.652344 500.25 776.667969 C 487.34375 779.949219 473.582031 783.851562 460.28125 785.140625 L 421.363281 788.457031 C 359.699219 789.371094 309.453125 782.21875 251.800781 757.285156 C 122.53125 701.382812 32.472656 584.800781 13.589844 444.410156 C 12.339844 435.101562 10.78125 425.554688 10.238281 416.183594 L 9.953125 380.785156 C 9.96875 376.679688 9.863281 372.410156 10.425781 368.339844 L 11.949219 352.363281 C 13.089844 340.945312 15.109375 329.058594 17.4375 317.816406 C 44.023438 189.359375 130.210938 83.402344 250.179688 31.941406 C 292.453125 13.808594 339.671875 0.609375 386.046875 0.0507812 Z M 587.140625 184.011719 L 317.886719 260.8125 L 140.351562 308.5 C 135.742188 309.6875 129.699219 310.511719 126.921875 314.90625 L 126.164062 316.488281 C 123.894531 321.542969 125.371094 325.769531 129.730469 328.804688 L 250.726562 405.324219 C 251.9375 406.117188 253.367188 407.269531 254.683594 407.832031 L 437.175781 281.96875 L 475.035156 257.570312 C 496.691406 243.6875 518.980469 229.390625 542.628906 219.167969 C 545 218.144531 548.386719 215.851562 550.78125 215.453125 L 474.140625 278.480469 L 393.515625 337.601562 L 271.332031 421.726562 C 269.855469 422.683594 267.121094 423.855469 266.230469 425.320312 L 266.367188 425.734375 C 268.273438 431.550781 269.402344 437.96875 270.964844 443.917969 L 307.578125 577.929688 C 311.957031 594.582031 311.578125 611.613281 331.800781 597.597656 L 387.328125 558.847656 L 407.058594 544.050781 C 408.34375 543.003906 410.09375 541.996094 411.054688 540.664062 L 351.066406 498.417969 C 349.523438 497.386719 348.105469 497.195312 346.738281 495.828125 L 346.363281 526.707031 C 346.261719 555.886719 346.207031 560.269531 326.667969 581.347656 C 326.128906 575.984375 325.277344 570.726562 325.132812 565.324219 L 325.949219 474.285156 C 325.957031 464.992188 323.996094 466.289062 330.179688 459.648438 L 515.582031 264.902344 C 534.570312 246.40625 553.625 227.355469 575.589844 212.394531 L 534.972656 266.613281 L 446.09375 365.804688 L 366.132812 451.863281 C 360.222656 458.140625 354.378906 465.265625 347.695312 470.695312 L 494.539062 571.136719 C 499.71875 574.597656 505.085938 579.226562 510.558594 582.109375 C 519.769531 586.957031 527.644531 582.277344 529.589844 572.878906 L 597.074219 209.785156 C 598.058594 204.308594 600.976562 196.949219 598.625 191.566406 L 598.441406 191.144531 C 596.980469 187.96875 591.101562 183.0625 587.140625 184.011719 Z M 587.140625 184.011719 " fill-opacity="1" fill-rule="nonzero"/></g></svg>